PathFileType	4	(X/Y/Z)	Patient4_TMGait_0pt4_02_right_43.trc.trc
DataRate	CameraRate	NumFrames	NumMarkers	Units	OrigDataRate	OrigDataStartFrame	OrigNumFrames
75.675675675676	75.675675675676	4	33	mm	75.675675675676	18	       141
Frame#	Time	Sacral			L.Shoulder			Chest			R.Shoulder			Neck			R.ASIS			L.ASIS			R.Thigh.Superior			R.Thigh.Lateral			R.Thigh.Inferior			R.Patella			L.Thigh.Superior			L.Thigh.Lateral			L.Thigh.Inferior			L.Patella			L.Shank.Superior			L.Shank.Lateral			L.Shank.Inferior			R.Shank.Superior			R.Shank.Lateral			R.Shank.Inferior			R.Heel			R.Midfoot.Superior			R.Midfoot.Lateral			R.Toe			L.Heel			L.Midfoot.Lateral			L.Midfoot.Superior			L.Toe			L.Elbow			L.Wrist			R.Elbow			R.Wrist			
		X1	Y1	Z1	X2	Y2	Z2	X3	Y3	Z3	X4	Y4	Z4	X5	Y5	Z5	X6	Y6	Z6	X7	Y7	Z7	X8	Y8	Z8	X9	Y9	Z9	X10	Y10	Z10	X11	Y11	Z11	X12	Y12	Z12	X13	Y13	Z13	X14	Y14	Z14	X15	Y15	Z15	X16	Y16	Z16	X17	Y17	Z17	X18	Y18	Z18	X19	Y19	Z19	X20	Y20	Z20	X21	Y21	Z21	X22	Y22	Z22	X23	Y23	Z23	X24	Y24	Z24	X25	Y25	Z25	X26	Y26	Z26	X27	Y27	Z27	X28	Y28	Z28	X29	Y29	Z29	X30	Y30	Z30	X31	Y31	Z31	X32	Y32	Z32	X33	Y33	Z33	

18	56.884642857143	806.916841093159	1007.853563350117	457.746854743712	1007.887510352793	1434.681041479486	282.920949609688	1092.395525135208	1368.812399048701	454.904196120143	991.370222502705	1443.417080859701	618.936075206023	969.793082277289	1498.087263734625	437.774115067384	1028.293072879513	947.091484790285	592.525642530154	1032.754581722859	964.563832534670	317.096247082736	1091.235987115530	762.496886837141	572.384412165490	1040.728638420341	649.278194811183	652.515304215509	1125.907246503253	601.164883479718	573.731085249430	1155.091749611096	523.023300668049	593.801241177547	1050.350543260638	740.313297625029	348.770502456287	947.933372570211	636.156345517070	279.508325515246	1014.232991333714	549.114988423154	346.463456179833	1003.471568255634	483.097949231609	355.643298594342	975.246091483355	413.536855934025	345.947985018948	880.724764384262	303.661722785480	291.913645503054	923.100054264211	190.412970558034	366.426342137114	1141.889728229393	439.016448467069	609.732106277559	1094.558712280311	327.942517606090	681.547737102374	1165.469802954928	241.157456709443	632.727015087379	1079.583519466140	50.112584673336	617.645079085142	1242.401874645939	128.899953366881	648.435724555126	1166.781890277817	52.673067388037	687.928914392577	1368.497939686392	95.730658221727	670.675305370918	790.009192822306	38.575853594721	410.953879120775	862.381490267600	35.241647830438	328.645583083917	946.478694234717	95.480223182514	355.200334959759	1074.935107378930	42.171512048114	324.561724341033	1069.612778485348	1112.929162746025	119.334061775164	1324.077264319129	1062.200166887510	125.215885071514	858.349277234988	1119.807905675924	719.405497157793	851.496107863630	857.459222487443	706.593732237370	
19	56.897857142857	807.824202635648	1007.168999568428	459.521104462762	1007.971818030443	1433.946124020945	284.732042232533	1092.585536621797	1368.335322433211	456.772906652783	991.453415632558	1442.950660506522	620.742491756590	969.767901998801	1497.487669237100	439.528125603654	1028.943880524072	946.040048747599	594.411969720698	1033.636861277298	964.117342151595	318.971628034539	1090.052314280884	760.152841177936	574.758760032170	1037.356608684803	646.684376051465	653.552483295227	1123.192487421469	598.674767217795	575.461487003476	1151.391201041949	521.161762098732	594.844702771402	1049.192625109757	739.279266099010	349.968891170503	945.407694460134	636.248369117633	280.503000178099	1010.644201114606	548.447026203812	347.199110787309	999.293172363978	482.627918666789	356.170424855605	970.819200114292	413.396026519666	346.391333005011	875.775649612654	303.959130494197	292.325356035394	918.069386855066	190.394983405614	366.511333692278	1138.795606325527	437.036688518511	610.088638179095	1091.421970289132	325.042381684259	680.216542245841	1163.880939518166	239.287961940980	631.691350401737	1079.849534862645	48.202808246667	614.070274083744	1241.998212663953	126.886536757347	647.000955911652	1166.205370656895	50.495460752626	685.238767384521	1367.897376854117	93.855758862136	670.186838768169	784.682769376197	38.624401374993	410.944082410286	857.031781645844	35.247855019427	328.630816852555	941.141193814226	95.471786989701	355.171486129124	1069.562212113657	42.176502253383	324.534151116732	1070.183052835236	1111.536231618433	122.524021215684	1324.809158610362	1061.863648874829	128.601453785221	858.962887499408	1119.261537004322	721.356817734848	852.765086412536	856.829512850358	707.676962105789	
20	56.911071428571	808.976735428425	1006.277467862457	461.564413448619	1007.807578495509	1433.163100760026	286.741082331022	1092.692588497306	1367.901906283711	458.796819440616	991.427266413548	1442.391189459675	622.765909979472	969.574225176035	1496.796196982081	441.505843281703	1029.951783580293	944.930224957723	596.391193343658	1034.705309180342	963.658050420482	320.980258067635	1089.763777424938	758.018996351600	577.035570946332	1034.890621395368	644.100853544073	654.275038803100	1121.415412991260	596.415964249546	576.881749974884	1148.501751153115	519.077510215109	595.511807038018	1048.177697301685	738.169400110580	351.203231042104	942.942909960785	636.340485049116	281.593618801303	1007.119439248873	547.754702631241	347.987858804718	995.190383393220	482.117956810246	356.745694476314	966.433459075333	413.245937621298	346.883864410440	870.809914929430	304.281430440862	292.800767077251	913.058304545097	190.373284218768	366.612952148208	1135.827069939923	434.564434331594	610.017209981566	1087.420842000683	322.166971879085	678.506326081757	1160.452087034918	236.810792043654	630.246504009115	1076.447897823226	46.721092571043	610.361798933080	1238.503534219744	123.934772906104	645.148081476808	1161.991034384990	48.191391311502	682.383167184859	1363.943984265868	90.060606388884	669.283714656632	779.352516963785	38.634207553777	410.937521518619	851.673967684735	35.240287163980	328.614373746905	935.783760140037	95.467497885713	355.143913698969	1064.172432598717	42.198285174330	324.504589276167	1070.367427550150	1110.016699048364	125.917741339952	1325.048410170967	1060.500677175736	132.084039229825	860.239068226989	1118.319419035528	723.779720520353	855.638672466953	855.803530985927	709.427829849212	
21	56.924285714286	810.355476462975	1005.184601893929	463.854453297657	1007.431349961269	1432.332013117448	288.957326257976	1092.736490037241	1367.499392923647	460.990505078672	991.304025873674	1441.726025294495	625.017131780056	969.238288429208	1496.012386043378	443.715818768694	1031.300183873961	943.775932846013	598.457591834000	1035.945200048617	963.179586666568	323.113798626864	1090.357333704618	756.072135756701	579.189263903938	1033.333432471084	641.581670575245	654.714545545118	1120.523148391155	594.393689362593	577.976804101803	1146.390377046471	516.814027521366	595.756956814482	1047.341598987132	736.991045495863	352.466470013023	940.600146933027	636.411566187291	282.792516935640	1003.746977869507	547.029962828360	348.846279096632	991.269116869381	481.539399484479	357.391209301420	962.174009739075	413.053274213002	347.451871231245	865.890213464738	304.619692571716	293.361372785542	908.078359011564	190.321006024224	366.747556943571	1133.092345515664	431.688275094892	609.564999391679	1082.894868908675	319.341242455998	676.591315599906	1155.602841982984	233.801972288389	628.491406192598	1070.034206286620	45.535631211335	606.775266586976	1232.506316477761	120.225920564948	642.969513055759	1154.863909208511	45.821032786004	679.556419813016	1357.331461999080	84.747160052712	667.981598695955	774.017886582570	38.594790674066	410.934415931640	846.310333243448	35.212853984855	328.600955937009	930.407743358556	95.463841224762	355.124742132723	1058.769712483183	42.225918210360	324.475211333894	1070.141913622517	1108.371858816012	129.490129484921	1324.778539394672	1058.129291690526	135.624022558563	862.111876753574	1116.991690714802	726.622525677376	860.033144700367	854.412138161514	711.869176255133	
